<?xml version="1.0" standalone="no"?>
<!DOCTYPE svg PUBLIC "-//W3C//DTD SVG 20010904//EN"
 "http://www.w3.org/TR/2001/REC-SVG-20010904/DTD/svg10.dtd">
<svg version="1.0" xmlns="http://www.w3.org/2000/svg"
 width="700.000000pt" height="700.000000pt" viewBox="0 0 700.000000 700.000000"
 preserveAspectRatio="xMidYMid meet">
<metadata>
Created by potrace 1.14, written by Peter Selinger 2001-2017
</metadata>
<g transform="translate(0.000000,700.000000) scale(0.100000,-0.100000)"
fill="#000000" stroke="none">
<path d="M6294 6555 c-21 -6 -49 -17 -61 -23 -12 -7 -1312 -1302 -2889 -2879
-2197 -2198 -2871 -2877 -2886 -2910 -60 -137 33 -292 182 -304 48 -3 99 10
133 33 16 11 1316 1308 2889 2881 2080 2080 2866 2872 2879 2901 46 102 3 232
-94 282 -45 24 -109 32 -153 19z"/>
<path d="M1685 6552 c-62 -22 -99 -54 -132 -114 -16 -30 -18 -72 -21 -500 l-3
-468 -447 -1 c-246 0 -458 -3 -472 -5 -43 -8 -110 -54 -136 -94 -54 -81 -41
-204 27 -271 68 -66 47 -64 561 -67 l467 -3 3 -467 3 -467 25 -45 c14 -24 45
-58 68 -75 40 -27 51 -30 121 -30 69 0 82 3 119 28 22 16 53 47 69 70 l28 42
3 473 3 472 447 1 c246 0 457 2 470 5 161 30 229 239 117 358 -72 77 -64 76
-577 76 l-457 0 -3 468 -3 467 -25 44 c-14 24 -44 57 -68 74 -35 26 -54 32
-105 34 -34 1 -71 -1 -82 -5z"/>
<path d="M4089 1956 c-53 -19 -94 -51 -121 -94 -19 -30 -23 -51 -23 -114 0
-69 3 -81 30 -119 19 -27 50 -54 84 -71 l53 -28 1147 3 c1091 2 1148 3 1180
20 137 75 164 244 56 350 -24 24 -61 48 -82 55 -58 18 -2274 16 -2324 -2z"/>
</g>
</svg>
